HIERARCHY
ROOT Hips
{
    OFFSET 0.000000 0.000000 0.000000
    CHANNELS 6 Xposition Yposition Zposition Zrotation Xrotation Yrotation
    JOINT Spine
    {
        OFFSET -0.000000 0.070888 0.000000
        CHANNELS 3 Zrotation Xrotation Yrotation
        JOINT Spine1
        {
            OFFSET -0.000000 0.202946 0.000000
            CHANNELS 3 Zrotation Xrotation Yrotation
            JOINT Neck
            {
                OFFSET -0.000000 0.220236 0.000000
                CHANNELS 3 Zrotation Xrotation Yrotation
                JOINT Head
                {
                    OFFSET -0.000000 0.134811 0.017395
                    CHANNELS 3 Zrotation Xrotation Yrotation
                    End Site
                    {
                        OFFSET -0.000000 0.172897 0.000000
                    }
                }
            }
            JOINT LeftShoulder
            {
                OFFSET 0.034631 0.183264 -0.000217
                CHANNELS 3 Zrotation Xrotation Yrotation
                JOINT LeftArm
                {
                    OFFSET 0.111751 0.000000 0.000000
                    CHANNELS 3 Zrotation Xrotation Yrotation
                    JOINT LeftForeArm
                    {
                        OFFSET 0.261541 0.000000 0.000000
                        CHANNELS 3 Zrotation Xrotation Yrotation
                        JOINT LeftHand
                        {
                            OFFSET 0.235169 0.000000 0.000000
                            CHANNELS 3 Zrotation Xrotation Yrotation
                            End Site
                            {
                                OFFSET 0.129673 0.000000 0.000000
                            }
                        }
                    }
                }
            }
            JOINT RightShoulder
            {
                OFFSET -0.034507 0.183264 -0.000217
                CHANNELS 3 Zrotation Xrotation Yrotation
                JOINT RightArm
                {
                    OFFSET -0.111751 0.000000 0.000000
                    CHANNELS 3 Zrotation Xrotation Yrotation
                    JOINT RightForeArm
                    {
                        OFFSET -0.261541 0.000000 0.000000
                        CHANNELS 3 Zrotation Xrotation Yrotation
                        JOINT RightHand
                        {
                            OFFSET -0.235169 0.000000 0.000000
                            CHANNELS 3 Zrotation Xrotation Yrotation
                            End Site
                            {
                                OFFSET -0.129673 0.000000 0.000000
                            }
                        }
                    }
                }
            }
        }
    }
    JOINT LeftUpLeg
    {
        OFFSET 0.086448 0.000000 0.000000
        CHANNELS 3 Zrotation Xrotation Yrotation
        JOINT LeftLeg
        {
            OFFSET -0.000000 -0.419609 0.000000
            CHANNELS 3 Zrotation Xrotation Yrotation
            JOINT LeftFoot
            {
                OFFSET -0.000000 -0.342023 0.000000
                CHANNELS 3 Zrotation Xrotation Yrotation
                JOINT LeftToeBase
                {
                    OFFSET -0.000000 -0.056192 0.129673
                    CHANNELS 3 Zrotation Xrotation Yrotation
                    End Site
                    {
                        OFFSET -0.000000 0.000000 0.034579
                    }
                }
            }
        }
    }
    JOINT RightUpLeg
    {
        OFFSET -0.086448 0.000000 0.000000
        CHANNELS 3 Zrotation Xrotation Yrotation
        JOINT RightLeg
        {
            OFFSET -0.000000 -0.419609 0.000000
            CHANNELS 3 Zrotation Xrotation Yrotation
            JOINT RightFoot
            {
                OFFSET -0.000000 -0.342023 0.000000
                CHANNELS 3 Zrotation Xrotation Yrotation
                JOINT RightToeBase
                {
                    OFFSET -0.000000 -0.056192 0.129673
                    CHANNELS 3 Zrotation Xrotation Yrotation
                    End Site
                    {
                        OFFSET -0.000000 0.000000 0.034579
                    }
                }
            }
        }
    }
}
MOTION
Frames:    4
Frame Time:    0.010000
-0.528661    0.781271    0.035390    3.540263    -0.251051    100.470253    -0.991344    11.071609    -3.654047    -12.828495    -12.292552    -2.637273    -19.155334    -2.409855    -4.872879    -4.899207    -8.366829    -6.928472    4.243773    -7.392217    -3.100379    -70.205719    11.535367    15.076894    4.625679    -3.834969    -11.075946    0.184953    -3.382700    2.655622    -8.058282    -10.237153    5.862072    53.953686    11.296686    8.846241    -146.618439    -45.891460    -26.801239    71.331627    -71.626877    75.337189    2.599369    4.196628    -8.870929    -10.597986    14.256413    -0.838496    0.120352    -18.730436    -5.343349    0.000000    0.000000    0.000000    -0.211964    10.849335    -17.174809    9.021108    4.563858    -3.345075    -5.200934    -15.413349    -3.320537    0.000000    0.000000    0.000000    
-0.528479    0.781458    0.036137    3.582326    -0.245851    100.460915    -1.083037    11.182579    -3.630779    -13.171993    -12.325680    -2.674153    -19.160957    -2.538076    -4.872259    -4.838746    -8.290546    -6.906401    4.257530    -7.423772    -3.109721    -69.928200    11.462674    15.089693    4.682580    -3.905691    -11.309985    -0.050468    -3.443779    2.708034    -7.540165    -9.390060    5.972242    53.248043    10.900216    9.352032    -146.102310    -44.874630    -27.776957    71.808128    -72.446953    75.628105    2.681115    4.329915    -8.874037    -10.618427    14.055727    -0.738979    -0.002597    -18.632471    -5.442288    0.000000    0.000000    0.000000    -0.190730    10.758080    -17.011511    9.025486    4.843973    -3.428434    -5.220401    -15.464428    -3.429052    0.000000    0.000000    0.000000    
-0.528313    0.781597    0.036909    3.606907    -0.242725    100.487373    -1.246011    11.376289    -3.663208    -13.563956    -12.304748    -2.729974    -18.786804    -3.115980    -4.954758    -4.679481    -7.869320    -6.842724    4.767202    -7.869758    -2.743011    -70.135231    11.661594    15.211132    4.797560    -3.932467    -11.469909    -0.316529    -3.458232    2.531678    -7.499177    -9.535229    5.773180    53.553360    11.493786    9.243928    -145.595428    -43.497787    -29.041157    73.318756    -72.939796    77.137131    2.766482    4.413172    -8.866156    -10.643797    13.913035    -0.677924    -0.080738    -18.555174    -5.534695    0.000000    0.000000    0.000000    -0.130982    10.769103    -17.078897    9.019843    4.886003    -3.401555    -5.161733    -15.397729    -3.422787    0.000000    0.000000    0.000000    
-0.528407    0.781600    0.037709    3.615178    -0.244010    100.599144    -1.517084    11.629602    -3.715763    -13.478078    -12.629963    -2.786743    -18.779249    -3.240594    -4.916559    -4.787008    -7.469177    -6.757897    4.532298    -7.593507    -2.845085    -69.809326    11.625198    15.106466    4.807591    -3.967612    -11.655252    -0.659284    -3.490834    2.310217    -7.598802    -9.243774    5.747463    53.848339    11.646399    9.325931    -145.310776    -42.907066    -29.864597    74.470215    -73.577011    77.977936    2.833283    4.433639    -8.819744    -10.571721    13.820745    -0.812102    -0.203125    -18.527826    -5.608526    0.000000    0.000000    0.000000    -0.071791    10.756619    -17.196360    9.048962    4.928074    -3.370420    -5.282931    -15.414476    -3.452060    0.000000    0.000000    0.000000    
